<?xml version="1.0" encoding="UTF-8"?>
<!DOCTYPE svg PUBLIC "-//W3C//DTD SVG 1.1//EN" "http://www.w3.org/Graphics/SVG/1.1/DTD/svg11.dtd">
<svg xmlns="http://www.w3.org/2000/svg" version="1.1" width="512px" height="512px" style="shape-rendering:geometricPrecision; text-rendering:geometricPrecision; image-rendering:optimizeQuality; fill-rule:evenodd; clip-rule:evenodd" xmlns:xlink="http://www.w3.org/1999/xlink">
<g><path style="opacity:0.997" fill="#efc38a" d="M 232.5,-0.5 C 247.833,-0.5 263.167,-0.5 278.5,-0.5C 368.144,10.3879 435.644,54.7213 481,132.5C 497.695,163.971 507.861,197.304 511.5,232.5C 511.5,247.833 511.5,263.167 511.5,278.5C 500.612,368.144 456.279,435.644 378.5,481C 347.029,497.695 313.696,507.861 278.5,511.5C 263.167,511.5 247.833,511.5 232.5,511.5C 142.856,500.612 75.3562,456.279 30,378.5C 13.3053,347.029 3.1386,313.696 -0.5,278.5C -0.5,263.167 -0.5,247.833 -0.5,232.5C 10.3875,142.857 54.7208,75.3573 132.5,30C 163.971,13.3053 197.304,3.1386 232.5,-0.5 Z"/></g>
<g><path style="opacity:1" fill="#4e4472" d="M 353.5,61.5 C 362.412,61.2256 370.412,63.7256 377.5,69C 394.667,86.1667 411.833,103.333 429,120.5C 438.604,132.906 438.938,145.573 430,158.5C 413.755,171.626 398.922,170.126 385.5,154C 384.833,153.333 384.167,153.333 383.5,154C 370.986,166.347 358.652,178.847 346.5,191.5C 353.152,198.652 359.985,205.652 367,212.5C 369.149,216.087 368.816,219.42 366,222.5C 312.833,275.667 259.667,328.833 206.5,382C 196.756,389.126 186.923,389.293 177,382.5C 165.546,393.076 152.046,396.909 136.5,394C 131.442,392.637 126.776,390.471 122.5,387.5C 111.014,398.486 99.6807,409.652 88.5,421C 83.7741,424.683 79.6075,424.183 76,419.5C 75.3333,417.167 75.3333,414.833 76,412.5C 88.0142,400.653 99.8475,388.653 111.5,376.5C 99.713,357.184 101.046,338.851 115.5,321.5C 109.747,311.139 110.247,301.139 117,291.5C 170.527,237.639 224.361,184.139 278.5,131C 281.303,130.245 283.97,130.578 286.5,132C 293.333,138.833 300.167,145.667 307,152.5C 319.333,140.167 331.667,127.833 344,115.5C 344.667,114.5 344.667,113.5 344,112.5C 330.713,101.648 328.046,88.6477 336,73.5C 340.84,67.8471 346.673,63.8471 353.5,61.5 Z"/></g>
<g><path style="opacity:1" fill="#d1e4f6" d="M 406.5,119.5 C 401.167,125.5 395.5,131.167 389.5,136.5C 375.535,123.035 361.701,109.369 348,95.5C 344.463,87.3123 346.629,81.1456 354.5,77C 357.928,76.2989 361.262,76.6323 364.5,78C 379.006,91.3394 393.006,105.173 406.5,119.5 Z"/></g>
<g><path style="opacity:1" fill="#a3cdf0" d="M 406.5,119.5 C 411.83,123.997 416.663,128.997 421,134.5C 423.514,147.313 418.348,153.147 405.5,152C 399.663,147.33 394.33,142.163 389.5,136.5C 395.5,131.167 401.167,125.5 406.5,119.5 Z"/></g>
<g><path style="opacity:1" fill="#a2ccef" d="M 354.5,125.5 C 361.243,130.737 367.577,136.571 373.5,143C 360.986,155.681 348.319,168.181 335.5,180.5C 329.848,175.348 324.348,170.015 319,164.5C 318.333,163.5 318.333,162.5 319,161.5C 331.035,149.632 342.869,137.632 354.5,125.5 Z"/></g>
<g><path style="opacity:1" fill="#d2e5f7" d="M 329.5,196.5 C 318.167,208.167 306.833,219.833 295.5,231.5C 279.535,216.035 263.701,200.368 248,184.5C 247.333,183.833 247.333,183.167 248,182.5C 259.348,171.319 270.514,159.986 281.5,148.5C 297.854,164.188 313.854,180.188 329.5,196.5 Z"/></g>
<g><path style="opacity:1" fill="#fc909d" d="M 284.5,242.5 C 246.5,279.833 208.833,317.5 171.5,355.5C 156.868,341.369 142.368,327.035 128,312.5C 126,309.167 126,305.833 128,302.5C 164.014,266.32 200.18,230.32 236.5,194.5C 252.854,210.188 268.854,226.188 284.5,242.5 Z"/></g>
<g><path style="opacity:1" fill="#a2ccef" d="M 329.5,196.5 C 336.632,203.131 343.632,209.964 350.5,217C 345.319,222.348 339.985,227.515 334.5,232.5C 329.655,228.154 324.988,223.654 320.5,219C 311.738,216.09 308.238,219.256 310,228.5C 314.88,233.044 319.38,237.878 323.5,243C 321.367,246.3 318.701,249.134 315.5,251.5C 308.479,245.146 301.812,238.479 295.5,231.5C 306.833,219.833 318.167,208.167 329.5,196.5 Z"/></g>
<g><path style="opacity:1" fill="#e6677d" d="M 284.5,242.5 C 291.479,248.812 298.146,255.479 304.5,262.5C 301.5,265.167 298.5,267.833 295.5,270.5C 291.348,266.849 287.348,263.016 283.5,259C 274.095,254.281 269.929,257.114 271,267.5C 275.333,271.833 279.667,276.167 284,280.5C 284.667,281.167 284.667,281.833 284,282.5C 274.986,291.681 265.819,300.681 256.5,309.5C 251.649,304.815 246.649,300.315 241.5,296C 233.212,294.709 230.045,298.209 232,306.5C 236.333,310.833 240.667,315.167 245,319.5C 245.667,320.167 245.667,320.833 245,321.5C 235.986,330.681 226.819,339.681 217.5,348.5C 212.649,343.815 207.649,339.315 202.5,335C 194.212,333.709 191.045,337.209 193,345.5C 197.682,350.015 202.182,354.681 206.5,359.5C 202.384,364.956 197.384,369.289 191.5,372.5C 183.641,368.313 176.974,362.646 171.5,355.5C 208.833,317.5 246.5,279.833 284.5,242.5 Z"/></g>
<g><path style="opacity:1" fill="#79a8ee" d="M 125.5,332.5 C 139.581,345.078 153.248,358.245 166.5,372C 152.215,383.746 138.381,383.246 125,370.5C 116.184,357.638 116.351,344.972 125.5,332.5 Z"/></g>
</svg>
